<svg xmlns="http://www.w3.org/2000/svg" viewBox="0 0 512 512"><path d="M256 0C115.3 0 0 115.3 0 256s115.3 256 256 256 256-115.3 256-256S396.7 0 256 0z" fill="#ff3636"/><path d="M512 256c0 140.7-115.3 256-256 256V0c140.7 0 256 115.3 256 256z" fill="#f40000"/><path fill="#e7e7e7" d="M298.299 256l84.901 84.901-42.299 42.299L256 298.299 171.099 383.2 128.8 340.901 213.701 256 128.8 171.099l42.299-42.299L256 213.701l84.901-84.901 42.299 42.299z"/><path fill="#d3d3d8" d="M298.299 256l84.901 84.901-42.299 42.299L256 298.299v-84.598l84.901-84.901 42.299 42.299z"/></svg>