<svg xmlns="http://www.w3.org/2000/svg" viewBox="0 0 512 512"><linearGradient id="a" gradientUnits="userSpaceOnUse" x1="445.267" y1="491.017" x2="103.387" y2="149.139" gradientTransform="matrix(1.0667 0 0 -1.0667 3.267 557.533)"><stop offset="0" stop-color="#5b6a6a"/><stop offset=".311" stop-color="#c2cece" stop-opacity="0"/><stop offset=".348" stop-color="#cad5d5" stop-opacity=".157"/><stop offset=".47" stop-color="#e0e8e7" stop-opacity=".669"/><stop offset=".549" stop-color="#e8efee"/><stop offset=".788" stop-color="#97aaaa"/><stop offset=".861" stop-color="#9caeae" stop-opacity=".724"/><stop offset=".946" stop-color="#aab9b9" stop-opacity=".402"/><stop offset="1" stop-color="#b7c3c3" stop-opacity=".196"/></linearGradient><path d="M228.223 512c-14.901 0-27.026-12.124-27.026-27.026V472.33c0-7.733-4.97-14.606-12.365-17.099a209.757 209.757 0 0 1-26.167-10.848 18.436 18.436 0 0 0-8.157-1.921c-4.815 0-9.331 1.866-12.717 5.251l-8.947 8.947c-5.104 5.105-11.891 7.917-19.11 7.917-7.22 0-14.007-2.812-19.111-7.916l-39.281-39.283c-5.105-5.104-7.917-11.891-7.917-19.11 0-7.218 2.811-14.005 7.917-19.11l8.947-8.947c5.472-5.472 6.811-13.86 3.328-20.874a209.544 209.544 0 0 1-10.846-26.166c-2.493-7.396-9.365-12.365-17.1-12.365H27.027C12.126 310.804.001 298.68.001 283.778v-55.554c0-14.902 12.125-27.026 27.026-27.026H39.67c7.734 0 14.607-4.97 17.1-12.365a209.419 209.419 0 0 1 10.846-26.166c3.483-7.013 2.144-15.402-3.328-20.874l-8.947-8.948c-5.105-5.104-7.917-11.891-7.917-19.11s2.811-14.006 7.917-19.111l39.28-39.284c5.104-5.105 11.891-7.917 19.111-7.917 7.218 0 14.006 2.812 19.11 7.916l8.947 8.948c3.386 3.385 7.902 5.25 12.717 5.25 2.805 0 5.626-.665 8.157-1.921a209.972 209.972 0 0 1 26.167-10.848c7.396-2.493 12.365-9.364 12.365-17.099V27.026C201.197 12.124 213.322 0 228.223 0h55.554c14.901 0 27.026 12.124 27.026 27.026V39.67c0 7.734 4.97 14.606 12.365 17.099a209.757 209.757 0 0 1 26.167 10.848 18.436 18.436 0 0 0 8.157 1.921c4.815-.001 9.331-1.866 12.717-5.251l8.947-8.947c5.104-5.105 11.891-7.917 19.111-7.917 7.218 0 14.005 2.812 19.11 7.916l39.281 39.283c5.105 5.104 7.917 11.891 7.917 19.11 0 7.218-2.811 14.006-7.917 19.11l-8.947 8.947c-5.472 5.472-6.811 13.86-3.328 20.874a209.544 209.544 0 0 1 10.846 26.166c2.493 7.396 9.365 12.365 17.1 12.365h12.643c14.901 0 27.026 12.124 27.026 27.026v55.554c0 14.902-12.125 27.026-27.026 27.026H472.33c-7.734 0-14.607 4.97-17.1 12.365a209.419 209.419 0 0 1-10.846 26.166c-3.483 7.013-2.144 15.402 3.328 20.874l8.947 8.948c5.105 5.104 7.917 11.891 7.917 19.11 0 7.219-2.811 14.006-7.917 19.111l-39.281 39.282c-5.104 5.105-11.891 7.917-19.11 7.917-7.22 0-14.007-2.812-19.111-7.916l-8.947-8.948c-3.386-3.385-7.902-5.25-12.717-5.25a18.44 18.44 0 0 0-8.157 1.921 209.972 209.972 0 0 1-26.167 10.848c-7.396 2.493-12.365 9.364-12.365 17.099v12.644c0 14.902-12.125 27.026-27.026 27.026l-55.555.003zm27.778-338.58c-19.774 0-39.988 7.07-58.459 20.445a16.441 16.441 0 0 0-3.676 3.677c-22.533 31.117-26.714 66.09-11.469 95.951 14.198 27.811 42.402 45.089 73.604 45.089 19.774 0 39.988-7.07 58.459-20.445a16.441 16.441 0 0 0 3.676-3.677c22.533-31.117 26.714-66.09 11.469-95.951-14.199-27.812-42.402-45.089-73.604-45.089z" fill="url(#a)"/><linearGradient id="b" gradientUnits="userSpaceOnUse" x1="236.938" y1="360.118" x2="236.938" y2="54.828" gradientTransform="matrix(1.0667 0 0 -1.0667 3.267 557.533)"><stop offset="0" stop-color="#c2cece"/><stop offset="1" stop-color="#97aaaa"/></linearGradient><path d="M507.496 283.777v-55.554c0-12.438-10.083-22.522-22.522-22.522H472.33c-9.705 0-18.268-6.235-21.366-15.431a204.563 204.563 0 0 0-10.613-25.602c-4.323-8.708-2.695-19.187 4.179-26.062l8.948-8.948c8.796-8.796 8.796-23.056 0-31.851l-39.283-39.283c-8.796-8.796-23.056-8.796-31.851 0l-8.948 8.948c-6.875 6.875-17.354 8.501-26.062 4.179a204.263 204.263 0 0 0-25.602-10.613c-9.197-3.1-15.431-11.662-15.431-21.366V27.026c0-12.438-10.083-22.522-22.522-22.522h-55.554c-12.438 0-22.522 10.083-22.522 22.522V39.67c0 9.705-6.235 18.267-15.431 21.366a204.563 204.563 0 0 0-25.602 10.613c-8.708 4.323-19.187 2.695-26.062-4.179l-8.948-8.948c-8.796-8.796-23.056-8.796-31.851 0L58.525 97.807c-8.796 8.796-8.796 23.056 0 31.851l8.948 8.948c6.875 6.875 8.501 17.354 4.179 26.062a204.263 204.263 0 0 0-10.613 25.602c-3.1 9.197-11.662 15.431-21.366 15.431H27.027c-12.438 0-22.522 10.083-22.522 22.522v55.554c0 12.438 10.083 22.522 22.522 22.522h12.644c9.705 0 18.267 6.235 21.366 15.431a204.563 204.563 0 0 0 10.613 25.602c4.323 8.708 2.695 19.187-4.179 26.062l-8.948 8.948c-8.796 8.796-8.796 23.056 0 31.851l39.283 39.283c8.796 8.796 23.056 8.796 31.851 0l8.948-8.948c6.875-6.875 17.354-8.501 26.062-4.179a204.263 204.263 0 0 0 25.602 10.613c9.197 3.1 15.431 11.662 15.431 21.366v12.644c0 12.438 10.083 22.522 22.522 22.522h55.554c12.438 0 22.522-10.083 22.522-22.522v-12.644c0-9.705 6.235-18.268 15.431-21.366a204.563 204.563 0 0 0 25.602-10.613c8.708-4.323 19.187-2.695 26.062 4.179l8.948 8.948c8.796 8.796 23.056 8.796 31.851 0l39.283-39.283c8.796-8.796 8.796-23.056 0-31.851l-8.948-8.948c-6.875-6.875-8.501-17.354-4.179-26.062a204.263 204.263 0 0 0 10.613-25.602c3.1-9.197 11.662-15.431 21.366-15.431h12.644c12.442 0 22.525-10.084 22.525-22.522zm-190.395 38.006c-91.617 66.345-193.229-35.267-126.884-126.884a20.975 20.975 0 0 1 4.683-4.683c91.617-66.345 193.229 35.267 126.884 126.884a20.933 20.933 0 0 1-4.683 4.683z" fill="url(#b)"/><linearGradient id="c" gradientUnits="userSpaceOnUse" x1="383.628" y1="135.997" x2="99.218" y2="420.407" gradientTransform="matrix(1.0667 0 0 -1.0667 3.267 557.533)"><stop offset="0" stop-color="#363f3e" stop-opacity="0"/><stop offset="1" stop-color="#303033"/></linearGradient><path d="M507.31 286.535c-.077-.074-.149-.153-.227-.226a157.685 157.685 0 0 0-4.769-4.769 157.685 157.685 0 0 0-4.769-4.769 157.685 157.685 0 0 0-4.769-4.769 157.685 157.685 0 0 0-4.769-4.769 157.685 157.685 0 0 0-4.769-4.769 157.685 157.685 0 0 0-4.769-4.769 157.685 157.685 0 0 0-4.769-4.769 157.685 157.685 0 0 0-4.769-4.769 157.685 157.685 0 0 0-4.769-4.769 157.685 157.685 0 0 0-4.769-4.769 157.685 157.685 0 0 0-4.769-4.769 157.685 157.685 0 0 0-4.769-4.769 157.685 157.685 0 0 0-4.769-4.769 157.685 157.685 0 0 0-4.769-4.769 157.685 157.685 0 0 0-4.769-4.769 157.685 157.685 0 0 0-4.769-4.769 157.685 157.685 0 0 0-4.769-4.769 157.685 157.685 0 0 0-4.769-4.769 157.685 157.685 0 0 0-4.769-4.769 157.685 157.685 0 0 0-4.769-4.769 157.685 157.685 0 0 0-4.769-4.769 157.685 157.685 0 0 0-4.769-4.769 157.685 157.685 0 0 0-4.769-4.769 157.685 157.685 0 0 0-4.769-4.769 157.685 157.685 0 0 0-4.769-4.769 157.685 157.685 0 0 0-4.769-4.769 157.685 157.685 0 0 0-4.769-4.769 157.685 157.685 0 0 0-4.769-4.769 157.685 157.685 0 0 0-4.769-4.769c-28.433-29.68-68.448-48.159-112.779-48.159-86.237 0-156.153 69.916-156.153 156.153 0 44.332 18.479 84.347 48.15 112.771a157.685 157.685 0 0 0 4.769 4.769 157.685 157.685 0 0 0 4.769 4.769 157.685 157.685 0 0 0 4.769 4.769 157.685 157.685 0 0 0 4.769 4.769 157.685 157.685 0 0 0 4.769 4.769 157.685 157.685 0 0 0 4.769 4.769 157.685 157.685 0 0 0 4.769 4.769 157.685 157.685 0 0 0 4.769 4.769 157.685 157.685 0 0 0 4.769 4.769 157.685 157.685 0 0 0 4.769 4.769 157.685 157.685 0 0 0 4.769 4.769 157.685 157.685 0 0 0 4.769 4.769 157.685 157.685 0 0 0 4.769 4.769 157.685 157.685 0 0 0 4.769 4.769 157.685 157.685 0 0 0 4.769 4.769 157.685 157.685 0 0 0 4.769 4.769 157.685 157.685 0 0 0 4.769 4.769 157.685 157.685 0 0 0 4.769 4.769 157.685 157.685 0 0 0 4.769 4.769 157.685 157.685 0 0 0 4.769 4.769 157.685 157.685 0 0 0 4.769 4.769 157.685 157.685 0 0 0 4.769 4.769 157.685 157.685 0 0 0 4.769 4.769 157.685 157.685 0 0 0 4.769 4.769 157.685 157.685 0 0 0 4.769 4.769 157.685 157.685 0 0 0 4.769 4.769 157.685 157.685 0 0 0 4.769 4.769 157.685 157.685 0 0 0 4.769 4.769 157.685 157.685 0 0 0 4.769 4.769c.074.077.153.149.226.227 11.135-1.363 19.763-10.833 19.763-22.336v-12.644c0-9.705 6.235-18.268 15.431-21.367a204.563 204.563 0 0 0 25.602-10.613c8.708-4.323 19.187-2.695 26.062 4.179l8.948 8.948c8.796 8.796 23.055 8.796 31.851 0l39.283-39.283c8.796-8.796 8.796-23.055 0-31.851l-8.948-8.948c-6.875-6.875-8.501-17.354-4.179-26.062a204.263 204.263 0 0 0 10.613-25.602c3.1-9.197 11.662-15.431 21.367-15.431h12.644c11.512.008 20.983-8.621 22.346-19.756zm-185.526 30.566a20.975 20.975 0 0 1-4.683 4.683c-91.617 66.345-193.229-35.267-126.884-126.884a20.975 20.975 0 0 1 4.683-4.683c91.617-66.345 193.229 35.267 126.884 126.884z" fill="url(#c)"/><linearGradient id="d" gradientUnits="userSpaceOnUse" x1="310.808" y1="208.817" x2="153.058" y2="366.567" gradientTransform="matrix(1.0667 0 0 -1.0667 3.267 557.533)"><stop offset="0" stop-color="#c2cece"/><stop offset=".293" stop-color="#bbc8c8"/><stop offset=".72" stop-color="#a8b8b8"/><stop offset="1" stop-color="#97aaaa"/></linearGradient><path d="M256.001 412.153c86.237 0 156.153-69.916 156.153-156.153S342.237 99.847 256.001 99.847 99.848 169.763 99.848 256s69.916 156.153 156.153 156.153zm0-263.973c59.542 0 107.82 48.277 107.82 107.82s-48.277 107.82-107.82 107.82-107.82-48.278-107.82-107.82 48.277-107.82 107.82-107.82z" fill="url(#d)"/><linearGradient id="e" gradientUnits="userSpaceOnUse" x1="342.578" y1="388.328" x2="116.308" y2="162.058" gradientTransform="matrix(1.0667 0 0 -1.0667 3.267 557.533)"><stop offset="0" stop-color="#00a6f9"/><stop offset="1" stop-color="#0071e2"/></linearGradient><path d="M256.001 107.283c-82.13 0-148.717 66.586-148.717 148.717s66.587 148.717 148.717 148.717S404.717 338.13 404.717 256s-66.586-148.717-148.716-148.717zm0 224.935c-42.091 0-76.218-34.127-76.218-76.218s34.127-76.218 76.218-76.218 76.218 34.127 76.218 76.218-34.128 76.218-76.218 76.218z" fill="url(#e)"/><linearGradient id="f" gradientUnits="userSpaceOnUse" x1="369.107" y1="150.517" x2="248.897" y2="270.727" gradientTransform="matrix(1.0667 0 0 -1.0667 3.267 557.533)"><stop offset="0" stop-color="#008bf2" stop-opacity="0"/><stop offset="1" stop-color="#0046e2"/></linearGradient><path d="M410.985 275.13a96.89 96.89 0 0 0-2.978-2.898 97.307 97.307 0 0 0-5.099-5.099 96.503 96.503 0 0 0-5.098-5.098 96.144 96.144 0 0 0-5.099-5.098 96.54 96.54 0 0 0-5.099-5.099 96.503 96.503 0 0 0-5.098-5.098 96.144 96.144 0 0 0-5.099-5.098 96.503 96.503 0 0 0-5.098-5.098 97.307 97.307 0 0 0-5.099-5.099 96.144 96.144 0 0 0-5.099-5.098 96.503 96.503 0 0 0-5.098-5.098 97.307 97.307 0 0 0-5.099-5.099 97.307 97.307 0 0 0-5.099-5.099 96.503 96.503 0 0 0-5.098-5.098 96.503 96.503 0 0 0-5.098-5.098 96.522 96.522 0 0 0-5.099-5.098 96.903 96.903 0 0 0-5.098-5.099c-17.549-18.91-42.605-30.756-70.436-30.756-53.069 0-96.094 43.025-96.094 96.094 0 27.831 11.846 52.886 30.756 70.436a96.144 96.144 0 0 0 5.099 5.098 96.903 96.903 0 0 0 5.098 5.099 96.503 96.503 0 0 0 5.098 5.098 96.503 96.503 0 0 0 5.098 5.098 96.922 96.922 0 0 0 5.099 5.099 97.307 97.307 0 0 0 5.099 5.099 96.503 96.503 0 0 0 5.098 5.098 96.903 96.903 0 0 0 5.098 5.099 97.307 97.307 0 0 0 5.099 5.099 96.503 96.503 0 0 0 5.098 5.098 96.903 96.903 0 0 0 5.098 5.099 96.503 96.503 0 0 0 5.098 5.098 96.54 96.54 0 0 0 5.099 5.099 96.903 96.903 0 0 0 5.098 5.099 96.884 96.884 0 0 0 5.098 5.098 96.922 96.922 0 0 0 5.099 5.099 98.073 98.073 0 0 0 2.898 2.978c70.945-8.67 127.189-64.914 135.857-135.857zm-154.984 57.088c-42.091 0-76.218-34.127-76.218-76.218s34.127-76.218 76.218-76.218 76.218 34.127 76.218 76.218-34.128 76.218-76.218 76.218z" fill="url(#f)"/><linearGradient id="g" gradientUnits="userSpaceOnUse" x1="236.938" y1="303.368" x2="236.938" y2="208.827" gradientTransform="matrix(1.0667 0 0 -1.0667 3.267 557.533)"><stop offset="0" stop-color="#c2cece"/><stop offset="1" stop-color="#97aaaa"/></linearGradient><path d="M256.001 164.482c-50.542 0-91.518 40.976-91.518 91.518s40.976 91.518 91.518 91.518 91.518-40.976 91.518-91.518-40.977-91.518-91.518-91.518zm0 138.421c-25.902 0-46.903-21.002-46.903-46.903s21.002-46.903 46.903-46.903 46.903 21.002 46.903 46.903-21.002 46.903-46.903 46.903z" fill="url(#g)"/><linearGradient id="h" gradientUnits="userSpaceOnUse" x1="282.398" y1="237.227" x2="185.318" y2="334.308" gradientTransform="matrix(1.0667 0 0 -1.0667 3.267 557.533)"><stop offset="0" stop-color="#c2cece"/><stop offset=".293" stop-color="#bbc8c8"/><stop offset=".72" stop-color="#a8b8b8"/><stop offset="1" stop-color="#97aaaa"/></linearGradient><path d="M256.001 352.094c53.069 0 96.094-43.025 96.094-96.094s-43.025-96.094-96.094-96.094-96.094 43.025-96.094 96.094 43.025 96.094 96.094 96.094zm0-162.445c36.641 0 66.351 29.709 66.351 66.351 0 36.642-29.71 66.351-66.351 66.351S189.65 292.641 189.65 256s29.709-66.351 66.351-66.351z" fill="url(#h)"/></svg>